<svg width="36" height="26" viewBox="0 0 36 26" fill="none" xmlns="http://www.w3.org/2000/svg">
<g id="US flag">
<path id="Vector" d="M35.445 2C34.752 0.809 33.477 0 32 0H18V2H35.445ZM0 20H36V22H0V20ZM18 12H36V14H18V12ZM18 8H36V10H18V8ZM0 16H36V18H0V16ZM4 26H32C33.477 26 34.752 25.191 35.445 24H0.555C1.248 25.191 2.523 26 4 26ZM18 4H36V6H18V4Z" fill="#B22334"/>
<path id="Vector_2" d="M0.068 22.679C0.085 22.772 0.104 22.865 0.127 22.956C0.153 23.057 0.185 23.154 0.219 23.252C0.308 23.511 0.416 23.761 0.552 23.995L0.555 24H35.445L35.447 23.996C35.582 23.763 35.69 23.513 35.779 23.255C35.813 23.156 35.846 23.057 35.872 22.954C35.895 22.864 35.914 22.772 35.931 22.679C35.972 22.459 36 22.233 36 22H0C0 22.233 0.028 22.458 0.068 22.679ZM0 18H36V20H0V18ZM0 14V16H36V14H18H0ZM18 10H36V12H18V10ZM18 6H36V8H18V6ZM0 4C0 3.767 0.03 3.543 0.068 3.321C0.028 3.542 0 3.767 0 4ZM0.555 2L0.552 2.005L0.555 2ZM0.128 3.044C0.153 2.942 0.188 2.845 0.22 2.747C0.186 2.845 0.154 2.943 0.128 3.044ZM18 4H36C36 3.767 35.972 3.541 35.931 3.32C35.914 3.228 35.896 3.136 35.872 3.046C35.845 2.943 35.813 2.843 35.778 2.744C35.689 2.486 35.581 2.237 35.446 2.004C35.447 2.003 35.446 2.001 35.445 2H18V4Z" fill="#EEEEEE"/>
<path id="Vector_3" d="M18 0H4C1.791 0 0 1.791 0 4V14H18V0Z" fill="#3C3B6E"/>
<path id="Vector_4" d="M2 2.726L2.618 3.175L2.382 3.9L2.999 3.452L3.617 3.9L3.381 3.175L3.999 2.726H3.235L2.999 2L2.764 2.726H2ZM4 4.726L4.618 5.175L4.382 5.9L4.999 5.452L5.617 5.9L5.381 5.175L5.999 4.726H5.235L4.999 4L4.764 4.726H4ZM8 4.726L8.618 5.175L8.382 5.9L8.999 5.452L9.617 5.9L9.381 5.175L9.999 4.726H9.235L8.999 4L8.764 4.726H8ZM12 4.726L12.618 5.175L12.382 5.9L12.999 5.452L13.617 5.9L13.381 5.175L13.999 4.726H13.235L12.999 4L12.764 4.726H12ZM4 8.726L4.618 9.175L4.382 9.9L4.999 9.452L5.617 9.9L5.381 9.175L5.999 8.726H5.235L4.999 8L4.764 8.726H4ZM8 8.726L8.618 9.175L8.382 9.9L8.999 9.452L9.617 9.9L9.381 9.175L9.999 8.726H9.235L8.999 8L8.764 8.726H8ZM12 8.726L12.618 9.175L12.382 9.9L12.999 9.452L13.617 9.9L13.381 9.175L13.999 8.726H13.235L12.999 8L12.764 8.726H12ZM6 2.726L6.618 3.175L6.382 3.9L6.999 3.452L7.617 3.9L7.381 3.175L7.999 2.726H7.235L6.999 2L6.764 2.726H6ZM10 2.726L10.618 3.175L10.382 3.9L10.999 3.452L11.617 3.9L11.381 3.175L11.999 2.726H11.235L10.999 2L10.764 2.726H10ZM14 2.726L14.618 3.175L14.382 3.9L14.999 3.452L15.617 3.9L15.381 3.175L15.999 2.726H15.235L14.999 2L14.764 2.726H14ZM2 6.726L2.618 7.175L2.382 7.9L2.999 7.452L3.617 7.9L3.381 7.175L3.999 6.726H3.235L2.999 6L2.764 6.726H2ZM6.382 7.9L6.999 7.452L7.617 7.9L7.381 7.175L7.999 6.726H7.235L6.999 6L6.764 6.726H6L6.618 7.175L6.382 7.9ZM10 6.726L10.618 7.175L10.382 7.9L10.999 7.452L11.617 7.9L11.381 7.175L11.999 6.726H11.235L10.999 6L10.764 6.726H10ZM14 6.726L14.618 7.175L14.382 7.9L14.999 7.452L15.617 7.9L15.381 7.175L15.999 6.726H15.235L14.999 6L14.764 6.726H14ZM2 10.726L2.618 11.175L2.382 11.9L2.999 11.452L3.617 11.9L3.381 11.175L3.999 10.726H3.235L2.999 10L2.764 10.726H2ZM6.382 11.9L6.999 11.452L7.617 11.9L7.381 11.175L7.999 10.726H7.235L6.999 10L6.764 10.726H6L6.618 11.175L6.382 11.9ZM10 10.726L10.618 11.175L10.382 11.9L10.999 11.452L11.617 11.9L11.381 11.175L11.999 10.726H11.235L10.999 10L10.764 10.726H10ZM14 10.726L14.618 11.175L14.382 11.9L14.999 11.452L15.617 11.9L15.381 11.175L15.999 10.726H15.235L14.999 10L14.764 10.726H14Z" fill="black"/>
</g>
</svg>
